<svg style="position: absolute; width: 0; height: 0; overflow: hidden;" version="1.1" xmlns="http://www.w3.org/2000/svg" xmlns:xlink="http://www.w3.org/1999/xlink">
<defs>
<symbol id="icon-play" viewBox="0 0 32 32">
<title>play</title>
<path d="M16 30.314c-8.357 0-15.131-6.581-15.131-14.698s6.774-14.698 15.131-14.698 15.131 6.581 15.131 14.698c0 8.118-6.774 14.698-15.131 14.698zM16 0.073c-8.837 0-16 6.958-16 15.542s7.163 15.542 16 15.542c8.837 0 16-6.959 16-15.542s-7.163-15.542-16-15.542z"></path>
<path d="M11.243 23.579l12.108-7.579-12.108-7.579z"></path>
</symbol>
<symbol id="icon-uokm8-logo" viewBox="0 0 26 32">
<title>uokm8-logo</title>
<path d="M9.172 22.491h1.828l-0.994 1.295v6.751l0.994 1.295h-4.328l0.985-1.295v-4.932l-2.691 4.265-2.774-4.322v4.988l0.994 1.295h-3.125l0.985-1.295v-6.552l-0.738-0.736 2.24-1.334 3.134 4.967 1.953-3.109-0.968-1.282h2.505z"></path>
<path d="M18.336 30.311c-0.174 0.338-0.412 0.628-0.708 0.875s-0.647 0.442-1.042 0.585c-0.399 0.143-0.929 0.216-1.593 0.216s-1.32-0.268-1.966-0.805c-0.647-0.537-0.972-1.178-0.972-1.923s0.156-1.286 0.464-1.624c0.308-0.338 0.577-0.572 0.799-0.697-0.391-0.307-0.655-0.641-0.786-1s-0.195-0.689-0.195-0.992c0-0.299 0.078-0.615 0.239-0.948 0.161-0.329 0.378-0.619 0.647-0.866s0.595-0.442 0.959-0.585c0.369-0.143 0.868-0.216 1.498-0.216s1.25 0.264 1.862 0.797c0.608 0.533 0.916 1.178 0.916 1.931 0 0.394-0.091 0.771-0.273 1.13s-0.425 0.663-0.734 0.914c0.764 0.559 1.15 1.264 1.15 2.109-0.004 0.403-0.091 0.766-0.265 1.1zM16.191 28.991c-0.556-0.424-1.007-0.74-1.363-0.94s-0.655-0.368-0.903-0.511c-0.074 0.204-0.109 0.433-0.109 0.689s0.1 0.546 0.3 0.857c0.2 0.312 0.53 0.658 0.99 1.044s1.077 0.663 1.849 0.831c0.048-0.16 0.069-0.312 0.069-0.463 0-0.576-0.278-1.078-0.833-1.507zM16.539 25.249c-0.191-0.29-0.499-0.619-0.925-0.987s-0.968-0.632-1.619-0.788c-0.069 0.186-0.104 0.372-0.109 0.559 0 0.918 0.404 1.555 1.207 1.914s1.35 0.611 1.641 0.749c0.061-0.186 0.091-0.403 0.091-0.645s-0.096-0.511-0.287-0.801z"></path>
<path d="M7.162 8.466c-0.699 0.688-1.554 1.031-2.565 1.031-1.016 0-1.871-0.346-2.565-1.044s-1.046-1.537-1.046-2.52v-4.638l-0.985-1.295h4.332l-0.994 1.295v4.603c0 0.702 0.221 1.295 0.664 1.78s1.011 0.732 1.702 0.732h0.148v-7.114l-0.981-1.295h4.332l-0.994 1.295v4.646c0 0.996-0.347 1.836-1.046 2.525z"></path>
<path d="M23.319 29.484c-0.69 0-1.25 0.528-1.25 1.217s0.56 1.217 1.25 1.217c0.721 0 1.25-0.528 1.25-1.217s-0.53-1.217-1.25-1.217z"></path>
<path d="M22.898 21.833c-0.942 0-1.854 0.16-2.088 0.204v2.641l1.554-1.611c0.382-0.372 0.99-0.368 1.367 0.009 0.382 0.381 0.382 0.996 0 1.377v0l-0.096 0.1c-0.009 0.013-0.017 0.022-0.030 0.035l-1.736 1.797 0.234 0.411 0.056 0.095c0.33 0.598 1.029 1.793 1.029 1.793l0.508-1.65c0.321-0.264 1.029-0.797 1.363-1.13 0.69-0.645 1.029-1.26 1.029-2.005 0-1.13-1.072-2.066-3.191-2.066z"></path>
<path d="M23.636 24.552l-1.623 1.68-0.143 0.143 0.004 0.009 1.736-1.797c0.009-0.013 0.017-0.026 0.026-0.035z"></path>
<path d="M15.783 17.407c-0.239 0.589-0.564 1.1-0.972 1.533s-0.89 0.771-1.446 1.018c-0.556 0.247-1.15 0.368-1.78 0.368-0.634 0-1.228-0.117-1.784-0.346s-1.037-0.55-1.45-0.966c-0.408-0.411-0.734-0.905-0.972-1.481s-0.356-1.212-0.356-1.905c0-0.693 0.117-1.342 0.356-1.944s0.564-1.126 0.972-1.572c0.408-0.446 0.89-0.797 1.445-1.052 0.551-0.255 1.146-0.385 1.784-0.385s1.233 0.121 1.788 0.364c0.556 0.242 1.037 0.576 1.446 1.005s0.734 0.935 0.972 1.524c0.239 0.589 0.356 1.23 0.356 1.923-0.004 0.688-0.122 1.329-0.36 1.918zM13.687 15.16c-0.2-0.585-0.486-1.104-0.868-1.559-0.378-0.455-0.842-0.823-1.393-1.104s-1.172-0.42-1.867-0.42c-0.265 0.632-0.399 1.277-0.399 1.94s0.1 1.286 0.3 1.875c0.2 0.589 0.491 1.113 0.868 1.572s0.842 0.831 1.385 1.109c0.547 0.281 1.172 0.42 1.875 0.42 0.265-0.663 0.395-1.321 0.395-1.975 0.004-0.654-0.095-1.273-0.295-1.858z"></path>
<path d="M23.666 20.486l-3.195-4.213v2.607l0.994 1.295h-4.332l0.985-1.295v-6.755l-0.985-1.295h4.332l-0.998 1.295v3.447l2.96-3.455-0.972-1.282h3.464l-3.577 4.205 2.392 3.165 1.25 0.901z"></path>
</symbol>
<symbol id="icon-rnli-logo" viewBox="0 0 69 32">
<title>rnli-logo</title>
<path fill="#fefefe" style="fill: var(--color1, #fefefe)" d="M25.284 28.586v3.298h1.787v-0.51h-1.182v-2.788z"></path>
<path fill="#fefefe" style="fill: var(--color1, #fefefe)" d="M27.42 31.884h0.601v-2.366h-0.601v2.366zM27.722 29.151c-0.206 0-0.371-0.161-0.371-0.364 0-0.196 0.165-0.361 0.371-0.361 0.21 0 0.374 0.161 0.374 0.361 0 0.199-0.165 0.364-0.374 0.364v0z"></path>
<path fill="#fefefe" style="fill: var(--color1, #fefefe)" d="M29.948 28.887c-0.095-0.040-0.201-0.065-0.301-0.065-0.19 0-0.28 0.113-0.28 0.319v0.377h0.625l-0.154 0.46h-0.471v1.907h-0.601v-1.907h-0.346v-0.46h0.346v-0.331c0-0.701 0.506-0.847 0.836-0.847 0.125 0 0.31 0.030 0.465 0.106l-0.119 0.442z"></path>
<path fill="#fefefe" style="fill: var(--color1, #fefefe)" d="M32.165 30.857v-0.174c0-0.736-0.421-1.221-1.061-1.221-0.676 0-1.076 0.56-1.076 1.236 0 0.636 0.35 1.236 1.177 1.236 0.28 0 0.595-0.075 0.86-0.261l-0.146-0.385c-0.205 0.111-0.389 0.166-0.615 0.166-0.366 0-0.655-0.246-0.666-0.597h1.527zM31.545 30.432h-0.922c0-0.259 0.176-0.52 0.466-0.52 0.305 0 0.446 0.266 0.456 0.52z"></path>
<path fill="#fefefe" style="fill: var(--color1, #fefefe)" d="M34.737 30.613c0-0.771-0.546-1.151-1.131-1.151-0.175 0-0.32 0.030-0.46 0.070v-1.193h-0.601v3.424c0.196 0.11 0.461 0.171 0.781 0.171 0.766 0 1.411-0.49 1.411-1.321zM34.136 30.664c0 0.44-0.295 0.781-0.695 0.781-0.121 0-0.206-0.015-0.295-0.045v-1.357c0.085-0.035 0.185-0.075 0.335-0.075 0.41 0 0.656 0.324 0.656 0.696z"></path>
<path fill="#fefefe" style="fill: var(--color1, #fefefe)" d="M37.429 30.694c0-0.361-0.105-0.671-0.314-0.891-0.206-0.216-0.506-0.34-0.872-0.34-0.345 0-0.631 0.124-0.841 0.334-0.22 0.226-0.344 0.545-0.344 0.917 0 0.379 0.13 0.706 0.364 0.925 0.206 0.191 0.486 0.296 0.816 0.296 0.355 0 0.646-0.126 0.856-0.342 0.219-0.219 0.334-0.54 0.334-0.899zM36.814 30.699c0 0.445-0.19 0.769-0.565 0.769-0.365 0-0.58-0.309-0.58-0.769 0-0.442 0.185-0.761 0.565-0.761 0.371 0 0.58 0.304 0.58 0.761z"></path>
<path fill="#fefefe" style="fill: var(--color1, #fefefe)" d="M39.801 31.884c-0.035-0.11-0.045-0.286-0.045-0.626v-0.937c0-0.62-0.354-0.859-0.94-0.859-0.316 0-0.61 0.050-0.927 0.259l0.196 0.377c0.151-0.090 0.349-0.176 0.61-0.176 0.251 0 0.45 0.116 0.45 0.4v0.060l-0.419 0.015c-0.605 0.020-0.99 0.286-0.99 0.776 0 0.465 0.339 0.761 0.774 0.761 0.316 0 0.532-0.121 0.685-0.261l0.101 0.211h0.505zM39.145 31.309c-0.080 0.070-0.214 0.151-0.425 0.151-0.251 0-0.384-0.135-0.384-0.331 0-0.201 0.143-0.309 0.47-0.319l0.339-0.010v0.51z"></path>
<path fill="#fefefe" style="fill: var(--color1, #fefefe)" d="M41.077 31.935c-0.42 0-0.585-0.236-0.585-0.555v-1.412h-0.42v-0.45h0.42v-0.547l0.6-0.179v0.726h0.736l-0.176 0.45h-0.56v1.191c0 0.186 0.071 0.271 0.226 0.271 0.151 0 0.304-0.070 0.395-0.131l0.161 0.379c-0.246 0.176-0.565 0.256-0.796 0.256z"></path>
<path fill="#fefefe" style="fill: var(--color1, #fefefe)" d="M42.869 31.935c-0.391 0-0.68-0.1-0.876-0.221l0.196-0.44c0.174 0.12 0.4 0.209 0.636 0.209 0.244 0 0.405-0.088 0.405-0.249 0-0.425-1.090-0.266-1.090-1.070 0-0.412 0.324-0.701 0.895-0.701 0.296 0 0.505 0.045 0.691 0.118v0.502c-0.2-0.080-0.415-0.156-0.671-0.156-0.204 0-0.334 0.065-0.334 0.206 0 0.375 1.11 0.249 1.11 1.065 0 0.53-0.45 0.736-0.961 0.736z"></path>
<path fill="#fefefe" style="fill: var(--color1, #fefefe)" d="M35.424 22.921c0.116-0.025 0.429-0.042 0.56-0.042 0.488 0 0.793 0.198 1.108 0.198 0.262 0 0.471-0.21 0.774-0.21 0.117 0 0.185 0.033 0.235 0.062 0.147 0.479 0.362 1.44 0.362 1.44-0.041-0.007-0.11 0.001-0.149 0.001-0.309 0-0.813 0.284-1.192 0.284-0.326 0-0.71-0.154-1.074-0.154-0.16 0-0.267 0.036-0.3 0.046-0.010-1.022-0.228-1.407-0.324-1.626z"></path>
<path fill="#fefefe" style="fill: var(--color1, #fefefe)" d="M42.463 24.67c-0.024 0.012-0.082 0.015-0.105 0.015-0.301 0-0.285-0.171-0.64-0.171-0.269 0-0.585 0.129-0.833 0.129-0.132 0-0.252-0.017-0.459-0.067-0.135-0.377-0.211-0.881-0.43-1.449 0.074 0.013 0.205 0.062 0.346 0.062 0.406-0 0.569-0.13 0.815-0.13 0.323 0 0.437 0.205 0.67 0.205 0 0 0.049-0.001 0.072-0.006 0.189 0.33 0.288 0.615 0.426 1.019 0.046 0.135 0.087 0.261 0.138 0.392z"></path>
<path fill="#fefefe" style="fill: var(--color1, #fefefe)" d="M43.724 27.373c-0.366-0.488-0.577-0.919-0.724-1.572-0.035 0.011-0.126 0.052-0.24 0.044-0.317-0.023-0.335-0.117-0.594-0.128-0.3-0.013-0.563 0.112-0.847 0.132-0.162 0.011-0.342-0.009-0.49-0.028 0.164 0.667 0.257 1.047 0.522 1.721 0.644 0.058 1.006-0.165 1.374-0.165 0.377 0 0.34 0.056 0.618 0.056 0.12 0 0.255-0.019 0.383-0.061z"></path>
<path fill="#fefefe" style="fill: var(--color1, #fefefe)" d="M38.793 25.758c0.085 0.456 0.31 1.432 0.445 1.886-0.023-0.002-0.027-0.006-0.093-0.006-0.558 0-0.928 0.306-1.536 0.306-0.324 0-0.526-0.126-0.86-0.126-0.11 0-0.247 0.011-0.361 0.050-0.109-0.161-0.201-0.505-0.201-0.701 0-0.433 0.040-0.586-0.004-0.956-0.003-0.023-0.009-0.105-0.034-0.202 0.049-0.012 0.136-0.028 0.207-0.028 0.309 0 0.602 0.068 0.966 0.073 0.617 0.009 0.876-0.321 1.473-0.296z"></path>
<path fill="#e15d4f" style="fill: var(--color2, #e15d4f)" d="M42.083 25.948c0 0 0.232 0.851 0.455 1.188 0 0-0.24 0.029-0.345 0.063-0.007 0.002-0.213-0.31-0.43-1.191 0 0 0.162-0.046 0.32-0.060z"></path>
<path fill="#e15d4f" style="fill: var(--color2, #e15d4f)" d="M37.678 27.347c-0.074-0.318-0.066-0.721-0.168-1.057-0.083 0.006-0.256 0.009-0.358-0.002 0.145 0.52 0.088 1.004 0.226 1.364 0.062 0.012 0.227 0.023 0.332 0.015 0.049-0.004 0.335-0.017 0.635-0.148-0.023-0.103-0.042-0.182-0.053-0.293-0.097 0.037-0.423 0.122-0.615 0.122z"></path>
<path fill="#e15d4f" style="fill: var(--color2, #e15d4f)" d="M41.416 23.315c-0.048-0.048-0.198-0.066-0.298-0.047 0 0 0.165 0.31 0.228 0.493 0 0-0.317-0.331-0.512-0.437 0 0-0.101 0.037-0.228 0.055 0 0 0.101 0.168 0.32 1.032 0 0 0.116-0.003 0.298-0.045 0 0-0.1-0.378-0.146-0.512 0 0 0.163 0.094 0.469 0.464 0 0 0.149-0.015 0.282 0.003 0 0-0.149-0.55-0.414-1.006z"></path>
<path fill="#e15d4f" style="fill: var(--color2, #e15d4f)" d="M41.107 27.533c-0.372 0-0.703 0.3-1.031 0.3-0.192 0-0.396-0.093-0.574-0.136-0.176-0.591-0.422-1.705-0.493-2.104-0.137-0.042-0.201-0.046-0.361-0.046-0.408 0-0.933 0.288-1.333 0.288-0.273 0-0.471-0.079-0.809-0.079-0.081 0-0.201-0.008-0.439 0.028-0.077-0.138-0.233-0.386-0.298-0.995 0.060-0.023 0.211-0.048 0.333-0.048 0.38 0 0.745 0.156 1.097 0.156 0.445 0 0.707-0.304 1.238-0.304 0.132 0 0.216-0.004 0.32 0.038-0.145-0.523-0.263-1.126-0.386-1.546 0.242 0.137 0.441 0.188 0.662 0.188 0.333 0 0.651-0.166 0.74-0.161 0.251 0.696 0.298 1.121 0.5 1.631 0.218 0.072 0.475 0.095 0.624 0.095 0.26 0 0.604-0.125 0.843-0.125 0.37 0 0.381 0.155 0.615 0.155 0.068 0 0.136-0.010 0.172-0.022 0.146 0.321 0.353 0.49 0.43 0.772-0.051 0.025-0.149 0.043-0.22 0.043-0.269 0-0.39-0.14-0.631-0.14-0.32 0-0.611 0.136-0.881 0.138-0.123 0.001-0.533-0.054-0.674-0.068 0.015 0.049 0.234 1.192 0.555 1.94z"></path>
<path fill="#fbd824" style="fill: var(--color3, #fbd824)" d="M40.028 24.962c-0.097 0.022-0.226 0.063-0.494 0.089-0.317 0.031-0.488-0.059-0.488-0.059-0.018-0.009-0.062-0.033-0.046-0.070 0.012-0.027 0.047-0.010 0.098 0.010 0.094 0.035 0.273 0.051 0.446 0.030 0.253-0.030 0.386-0.077 0.458-0.083 0.039-0.003 0.069-0.013 0.077 0.035 0.005 0.026-0.015 0.040-0.051 0.049z"></path>
<path fill="#fbd824" style="fill: var(--color3, #fbd824)" d="M39.381 23.989c-0.026 0.052-0.098 0.069-0.16 0.038s-0.091-0.099-0.065-0.151c0.026-0.052 0.098-0.069 0.16-0.038s0.091 0.099 0.065 0.151z"></path>
<path fill="#fbd824" style="fill: var(--color3, #fbd824)" d="M39.32 23.774c-0.044-0.035-0.081-0.097-0.082-0.098s0.066 0.020 0.114 0.050c-0.030-0.108-0.055-0.173-0.055-0.173-0.027 0.033-0.078 0.049-0.078 0.049 0-0.001 0.002-0.058 0.017-0.093-0.081 0.011-0.175 0.008-0.175 0.008 0.044 0.035 0.074 0.088 0.074 0.089-0.001-0-0.059-0.011-0.106-0.041 0 0 0.028 0.069 0.054 0.173 0.028-0.033 0.082-0.056 0.082-0.056s-0.001 0.061-0.021 0.1c0 0 0.070-0.009 0.175-0.008z"></path>
<path fill="#fbd824" style="fill: var(--color3, #fbd824)" d="M39.546 24.384c0.011 0.037 0.036 0.105 0.060 0.195 0 0-0.095-0.034-0.124-0.024 0 0 0.025 0.127 0.182 0.109s0.152-0.103 0.141-0.133c-0.010-0.030-0.069-0.065-0.097 0.011 0 0-0.053-0.037-0.029-0.086 0.026-0.053 0.074-0.060 0.104-0.045 0 0-0.013-0.122 0.029-0.147 0 0 0.042 0.006 0.090 0.104 0 0 0.028-0.081 0.007-0.178-0.018-0.083-0.086-0.183-0.247-0.147s-0.31 0.251-0.31 0.251c-0.184-0.146-0.493-0.359-0.552-0.215-0.049 0.117 0.096 0.272 0.096 0.272-0.002-0.063 0.030-0.068 0.030-0.068 0.054 0.045 0.081 0.152 0.081 0.152 0.039-0.004 0.077 0.015 0.098 0.034 0.060 0.053 0.043 0.114 0.043 0.114-0.009-0.035-0.043-0.055-0.061-0.050s-0.038 0.026 0.001 0.082c0.039 0.056 0.127 0.090 0.191 0.083 0.136-0.016 0.090-0.136 0.090-0.136-0.048 0.013-0.095 0.047-0.095 0.047-0.024-0.11-0.048-0.171-0.058-0.202 0.030 0.024 0.069 0.041 0.117 0.048-0.023-0.051-0.072-0.099-0.072-0.099s0.14-0.005 0.214-0.015c0 0-0.032 0.051-0.024 0.104 0.039-0.012 0.072-0.033 0.094-0.060zM39.322 24.168c0.183-0.24 0.442-0.288 0.587-0.164 0.132 0.113 0.152 0.363 0.038 0.539 0.027 0.111 0.068 0.205 0.083 0.247 0.001 0.002 0.001 0.004 0.001 0.006 0 0.010-0.006 0.018-0.017 0.020-0.147 0.037-0.415 0.082-0.507 0.090-0.302 0.025-0.464-0.063-0.464-0.063-0.018-0.010-0.021-0.034-0.021-0.034l-0.070-0.218c-0.011-0.014-0.074-0.1-0.087-0.119-0.146-0.195-0.22-0.402-0.123-0.502 0.075-0.077 0.3-0.055 0.582 0.196z"></path>
<path fill="#e15d4f" style="fill: var(--color2, #e15d4f)" d="M37.026 23.725c0.072 0.013 0.133-0.017 0.13-0.065-0.010-0.121-0.174-0.145-0.219-0.156-0.044-0.010-0.126-0.027-0.126-0.027l0.046 0.213c0 0 0.103 0.023 0.169 0.035zM37.116 23.326c0.271 0.042 0.355 0.212 0.355 0.366s-0.139 0.222-0.139 0.222c0.035 0.040 0.362 0.387 0.362 0.387-0.202 0.078-0.351 0.11-0.351 0.11l-0.332-0.471-0.11-0.024c0.056 0.241 0.083 0.509 0.083 0.509-0.209-0.027-0.363-0.083-0.363-0.083-0.042-0.498-0.208-1.184-0.208-1.184s0.459 0.13 0.701 0.167z"></path>
<path fill="#fbd824" style="fill: var(--color3, #fbd824)" d="M39.663 25.426c0.033-0.022 0.079-0.013 0.105 0.020s0.020 0.077-0.012 0.099c-0.032 0.022-0.079 0.013-0.105-0.020s-0.020-0.077 0.012-0.099zM40.623 26.496c-0.012-0.084-0.030-0.167-0.042-0.25-0.056 0.064-0.113 0.126-0.174 0.186 0 0-0.008 0.007-0.010 0.013-0.002 0.008 0.004 0.022 0.004 0.022 0.014 0.029 0.021 0.044 0.034 0.073-0.031 0.074-0.12 0.175-0.186 0.221-0.047 0.032-0.074 0.052-0.098 0.039-0.026-0.014-0.035-0.055-0.035-0.055-0.078-0.25-0.138-0.527-0.208-0.82 0 0 0.002 0.001 0.006-0.001 0.123-0.030 0.339-0.17 0.425-0.217l-0.028-0.11c-0.093 0.028-0.324 0.134-0.443 0.153-0.011-0.048-0.019-0.090-0.032-0.136 0.063-0.055 0.070-0.15 0.013-0.223-0.061-0.078-0.173-0.1-0.251-0.048s-0.090 0.157-0.030 0.236c0.022 0.028 0.051 0.049 0.083 0.062 0.010 0.044 0.017 0.082 0.028 0.129 0 0-0.134-0.003-0.451-0.11l0.031 0.125c0 0 0.202 0.112 0.459 0.164 0.048 0.226 0.118 0.514 0.211 0.82 0 0 0.012 0.040-0.009 0.059-0.020 0.018-0.055 0.017-0.108-0.010-0.137-0.070-0.208-0.165-0.265-0.224 0.003-0.032 0.005-0.049 0.008-0.081 0 0 0.001-0.015-0.004-0.021s-0.014-0.009-0.014-0.009c-0.161-0.052-0.243-0.097-0.243-0.097l0.069 0.269c0 0 0.002 0.010 0.007 0.014 0.006 0.005 0.021 0.004 0.021 0.004 0.031-0 0.047 0 0.078 0.001 0 0 0.164 0.295 0.632 0.409 0 0 0.359-0.258 0.433-0.515 0.028-0.015 0.041-0.023 0.069-0.040 0 0 0.013-0.008 0.016-0.016 0.003-0.007 0.001-0.017 0.001-0.017z"></path>
<path fill="#005a8d" style="fill: var(--color4, #005a8d)" d="M35.769 24.788c0.060-0.023 0.211-0.047 0.333-0.047 0.38 0 0.745 0.155 1.097 0.155 0.445 0 0.707-0.304 1.238-0.304 0.132 0 0.216-0.004 0.32 0.038-0.145-0.523-0.263-1.126-0.386-1.546-0.028-0.016-0.22-0.124-0.27-0.154 0.147 0.479 0.362 1.44 0.362 1.44-0.041-0.007-0.11 0.002-0.149 0.002-0.309 0-0.813 0.283-1.192 0.283-0.326 0-0.71-0.154-1.074-0.154-0.16 0-0.267 0.036-0.3 0.046 0.006 0.123 0.014 0.185 0.021 0.241z"></path>
<path fill="#005a8d" style="fill: var(--color4, #005a8d)" d="M36.149 26.009c0.049-0.012 0.136-0.028 0.206-0.028 0.309 0 0.603 0.068 0.966 0.073 0.617 0.009 0.876-0.321 1.473-0.296 0.085 0.456 0.31 1.432 0.445 1.886 0.075 0.009 0.203 0.037 0.263 0.053-0.176-0.591-0.422-1.705-0.493-2.104-0.137-0.042-0.201-0.046-0.361-0.046-0.408 0-0.933 0.288-1.333 0.288-0.273 0-0.471-0.079-0.809-0.079-0.081 0-0.201-0.008-0.439 0.028 0.026 0.050 0.067 0.158 0.082 0.226z"></path>
<path fill="#005a8d" style="fill: var(--color4, #005a8d)" d="M41.107 27.533c-0.321-0.749-0.54-1.892-0.555-1.94 0.141 0.013 0.551 0.069 0.674 0.068 0.27-0.002 0.561-0.138 0.881-0.138 0.241 0 0.362 0.14 0.631 0.14 0.071 0 0.169-0.018 0.22-0.043 0.015 0.054 0.033 0.138 0.042 0.183-0.035 0.011-0.126 0.052-0.24 0.044-0.317-0.023-0.335-0.117-0.594-0.128-0.3-0.013-0.563 0.112-0.847 0.132-0.162 0.011-0.342-0.009-0.491-0.028 0.164 0.667 0.257 1.047 0.522 1.721-0.051-0.004-0.178-0.011-0.242-0.011z"></path>
<path fill="#005a8d" style="fill: var(--color4, #005a8d)" d="M42.528 24.846c-0.037 0.012-0.105 0.022-0.172 0.022-0.234 0-0.245-0.156-0.615-0.156-0.239 0-0.582 0.125-0.843 0.125-0.149 0-0.406-0.023-0.624-0.095-0.202-0.51-0.249-0.935-0.5-1.63 0.064-0.004 0.151 0 0.223 0.016 0.219 0.568 0.295 1.072 0.43 1.449 0.207 0.050 0.327 0.067 0.459 0.067 0.248 0 0.564-0.129 0.833-0.129 0.355 0 0.339 0.171 0.64 0.171 0.023 0 0.081-0.003 0.105-0.015 0.017 0.044 0.037 0.114 0.065 0.176z"></path>
<path fill="#fefefe" style="fill: var(--color1, #fefefe)" d="M15.49 9.195l-1.338 5.085-1.305-5.085h-5.159l-1.327 4.994-1.418-4.994h-4.944l2.948 8.464h5.84l1.293-4.699 1.258 4.699h5.772l3.028-8.464z"></path>
<path fill="#fefefe" style="fill: var(--color1, #fefefe)" d="M22.621 9.195l-3.98 8.464h4.354l0.442-1.012h4.218l0.442 1.012h4.808l-4.23-8.464h-6.055zM25.524 11.8l1.032 2.344h-2.042l1.009-2.344z"></path>
<path fill="#fefefe" style="fill: var(--color1, #fefefe)" d="M31.666 9.195v2.912h3.639v5.552h4.31v-5.552h3.639v-2.912z"></path>
<path fill="#fefefe" style="fill: var(--color1, #fefefe)" d="M44.521 9.195v8.464h10.216v-2.389h-5.976v-0.729h5.863v-2.321h-5.863v-0.66h5.931v-2.366z"></path>
<path fill="#fefefe" style="fill: var(--color1, #fefefe)" d="M63.486 12.574c0.59 0 0.782-0.228 0.782-0.535 0-0.318-0.204-0.535-0.782-0.535h-3.141v1.070h3.141zM60.345 17.659h-4.309v-8.464h9.321c1.814 0 3.322 0.455 3.322 2.139v0.103c0 1.263-1.18 1.797-1.95 1.957 1.349 0.261 1.995 1.024 1.995 2.127v1.286c0 0.421 0.057 0.614 0.148 0.786v0.068h-4.434c-0.057-0.057-0.057-0.137-0.057-0.262v-1.024c0-0.864-0.42-1.422-1.634-1.422h-2.403v2.708z"></path>
<path fill="#fefefe" style="fill: var(--color1, #fefefe)" d="M1.292 3.317h0.542c0.443 0 0.602-0.257 0.602-0.732v-0.633c0-0.504-0.158-0.692-0.602-0.692h-0.542v2.058zM1.292 7.631h-1.291v-7.361h2.307c0.947 0 1.42 0.426 1.42 1.395v0.801c0 0.771-0.404 1.088-0.739 1.187 0.384 0.149 0.739 0.465 0.739 1.217v1.87c0 0.386 0.049 0.672 0.119 0.841v0.049h-1.283c-0.069-0.118-0.128-0.337-0.128-0.841v-1.702c0-0.505-0.168-0.722-0.602-0.722h-0.542v3.264z"></path>
<path fill="#fefefe" style="fill: var(--color1, #fefefe)" d="M10.349 0.27v1.148h-1.943v1.82h1.617v1.178h-1.617v2.038h2.002v1.178h-3.284v-7.361z"></path>
<path fill="#fefefe" style="fill: var(--color1, #fefefe)" d="M13.431 6.226v-1.246h1.281v1.009c0 0.406 0.217 0.603 0.592 0.603s0.581-0.247 0.581-0.712v-0.080c0-0.484-0.158-0.732-0.552-1.088l-0.957-0.861c-0.581-0.524-0.897-1.009-0.897-1.821v-0.208c0-1.108 0.621-1.632 1.784-1.632h0.207c1.075 0 1.696 0.465 1.696 1.425v0.97h-1.263v-0.713c0-0.445-0.177-0.623-0.531-0.623-0.385 0-0.563 0.178-0.563 0.594v0.069c0 0.426 0.138 0.643 0.542 1.009l0.947 0.871c0.661 0.604 0.947 1.049 0.947 1.919v0.208c0 1.009-0.522 1.791-1.834 1.791h-0.217c-1.145 0-1.765-0.545-1.765-1.484z"></path>
<path fill="#fefefe" style="fill: var(--color1, #fefefe)" d="M21.797 3.564h0.463c0.453 0 0.612-0.168 0.612-0.781v-0.692c0-0.594-0.159-0.772-0.612-0.772h-0.463v2.246zM21.797 4.663v2.968h-1.311v-7.361h2.101c1.065 0 1.587 0.396 1.587 1.573v1.206c0 1.118-0.552 1.613-1.587 1.613h-0.789z"></path>
<path fill="#fefefe" style="fill: var(--color1, #fefefe)" d="M30.668 0.27v1.148h-1.943v1.82h1.617v1.178h-1.617v2.038h2.002v1.178h-3.284v-7.361z"></path>
<path fill="#fefefe" style="fill: var(--color1, #fefefe)" d="M36.302 5.771v-1.197h1.272v1.266c0 1.019-0.463 1.88-1.735 1.88h-0.236c-1.253 0-1.776-0.752-1.776-1.89v-3.749c0-1.178 0.523-1.88 1.735-1.88h0.237c1.301 0 1.775 0.643 1.775 1.869v0.891h-1.272v-0.831c0-0.515-0.148-0.792-0.582-0.792-0.414 0-0.571 0.268-0.571 0.792v3.63c0 0.524 0.158 0.801 0.571 0.801 0.434 0 0.582-0.297 0.582-0.791z"></path>
<path fill="#fefefe" style="fill: var(--color1, #fefefe)" d="M41.791 1.437h-1.193v-1.168h3.687v1.168h-1.184v6.193h-1.311z"></path>
<path fill="#fefefe" style="fill: var(--color1, #fefefe)" d="M52.254 1.437h-1.193v-1.168h3.687v1.168h-1.183v6.193h-1.311z"></path>
<path fill="#fefefe" style="fill: var(--color1, #fefefe)" d="M57.938 0.27h1.311v2.919h1.213v-2.919h1.311v7.361h-1.311v-3.206h-1.213v3.206h-1.311z"></path>
<path fill="#fefefe" style="fill: var(--color1, #fefefe)" d="M68.436 0.27v1.148h-1.943v1.82h1.617v1.178h-1.617v2.038h2.002v1.178h-3.284v-7.361z"></path>
</symbol>
<symbol id="icon-the-guardian" viewBox="0 0 181 32">
<title>the-guardian</title>
<path d="M2.586 19.596v-9.348h-2.586v-2.558l2.586-0.345v-3.186l5.585-0.787v3.972h3.706v2.914h-3.706v8.867c0 1.664 0.464 2.518 2.099 2.518 0.583 0 1.375-0.062 1.783-0.147v2.162c-0.888 0.526-2.807 0.979-4.572 0.979-3.327 0-4.889-1.471-4.895-5.042v0zM39.826 8.828c1.403 0 2.162 0.249 2.162 5.206l-4.685 0.277c0.062-4.499 0.741-5.483 2.524-5.483zM37.347 16.325h10.067c0-7.085-2.433-9.348-7.498-9.348-5.031 0-8.33 3.237-8.33 8.799 0 5.744 2.993 8.918 8.794 8.918 3.118 0 5.636-1.392 6.417-2.456v-1.641c-1.171 0.351-2.377 0.583-4.533 0.583-3.050 0-4.617-1.579-4.917-4.867v0.011zM12.54 22.742l1.788-0.826v-18.368l-1.879-0.877v-1.534l6.96-1.126h0.47v9.195h0.187c1.517-1.375 3.559-2.23 5.828-2.23 2.852 0 4.267 1.42 4.267 4.516v10.423l1.811 0.826v1.556h-9.218v-1.556l1.811-0.826v-9.161c0-1.715-0.747-2.354-2.269-2.354-0.832 0-1.624 0.153-2.309 0.43v11.091l1.811 0.826v1.556h-9.241v-1.562h-0.017z"></path>
<path d="M134.717 8.081v1.534l1.879 0.871v11.442l-1.794 0.832v1.562h9.201v-1.534l-1.788-0.832v-14.984h-0.47l-7.028 1.12v-0.011zM153.798 21.033v-4.567l-1.307 0.125c-1.302 0.125-2.365 0.99-2.365 2.603 0 1.862 1.024 2.479 2.099 2.479 0.628 0 1.262-0.306 1.573-0.639v0zM149.837 9.246l-1.188 3.446h-2.903v-4.431c1.567-0.487 3.48-1.285 6.44-1.285 4.504 0 7.209 1.33 7.209 5.121v9.824l1.788 0.832v1.273c-0.549 0.294-1.794 0.673-3.152 0.673-1.76 0-3.333-0.56-3.593-2.394h-0.164c-0.747 1.5-2.744 2.416-4.85 2.416-2.999 0-4.889-1.935-4.889-4.742 0-3.452 2.269-4.018 5.97-4.787l3.225-0.56v-2.213c0-2.167-0.668-3.248-2.807-3.248-0.289 0-0.809 0.040-1.143 0.074h0.057zM161.647 22.742l1.788-0.809v-11.442l-1.884-0.871v-1.522l6.966-1.103h0.47v2.247h0.187c1.517-1.375 3.559-2.224 5.828-2.224 2.852 0 4.267 1.415 4.267 4.516v10.423l1.811 0.832v1.562h-9.218v-1.545l1.811-0.815v-9.235c0-1.715-0.747-2.354-2.269-2.354-0.832 0-1.624 0.153-2.309 0.43v11.091l1.788 0.826v1.556h-9.195v-1.562h-0.040zM126.897 3.559l-1.879-0.854v-1.539l7.022-1.126h0.47v21.367l1.788 0.979v1.454l-6.655 0.775h-0.458v-1.743h-0.187c-0.707 0.894-2.145 1.833-4.244 1.833-3.078 0-6.762-1.958-6.762-8.426 0-6.802 3.769-9.258 8.239-9.258 0.934 0 2.037 0.209 2.728 0.707v-4.17h-0.062zM126.897 21.328v-11.425c-0.436-0.334-0.894-0.611-1.913-0.611-1.754 0-3.101 1.579-3.101 6.349 0 4.176 1.064 5.993 3.282 5.993 0.866 0 1.347-0.175 1.726-0.328l0.006 0.023zM57.243 29.923c-3.067 0-4.12-1.081-4.12-2.247 0-0.809 0.215-1.375 0.651-1.896h5.936c1.386 0 2.020 0.419 2.020 1.29 0.006 1.749-0.968 2.852-4.487 2.852v0zM57.294 8.952c1.228 0 2.020 0.543 2.020 3.91s-0.792 3.723-1.998 3.723c-1.205 0-1.986-0.283-1.986-3.718s0.77-3.91 1.992-3.91l-0.028-0.006zM61.018 20.666h-6.032c-0.645 0-1.188-0.498-1.188-1.081 0-0.458 0.334-0.934 0.747-1.251 0.917 0.272 1.664 0.357 2.79 0.357 4.352 0 7.322-1.975 7.322-5.659 0-1.641-0.685-2.58-1.771-3.537v-0.13l2.79 0.979 0.373 0.023v-3.395h-0.311l-4.295 0.854h-0.238c-1.069-0.396-2.558-0.809-3.91-0.809-4.352 0-7.356 2.156-7.356 5.823 0 2.235 1.126 3.893 2.801 4.816v0.17c-0.968 0.685-2.829 2.082-2.829 3.882 0 1.313 0.866 2.609 2.677 2.999v0.181c-1.901 0.39-4.035 1.019-4.035 3.203 0 2.247 3.254 3.91 8.562 3.91 6.598 0 9.45-2.541 9.45-6.553 0-3.31-1.833-4.849-5.557-4.849l0.011 0.068zM103.277 8.098v1.539l1.896 0.871v11.448l-1.788 0.832v1.562h9.693v-1.545l-2.309-0.832v-9.427c0.956-0.458 2.218-0.611 3.723-0.611 0.498 0 1.081 0.062 1.42 0.153v-4.929c-0.187-0.062-0.555-0.091-0.832-0.091-1.85 0-3.367 1.194-4.352 3.452h-0.164v-3.559h-0.481l-6.802 1.12-0.006 0.017zM95.536 21.062v-4.578l-1.29 0.125c-1.29 0.125-2.354 1.002-2.354 2.62 0 1.873 1.019 2.479 2.099 2.479 0.622 0 1.262-0.311 1.567-0.645h-0.023zM91.564 9.263l-1.188 3.452h-2.914v-4.453c1.579-0.487 3.497-1.285 6.451-1.285 4.516 0 7.221 1.33 7.221 5.121v9.824l1.788 0.832v1.273c-0.543 0.294-1.788 0.673-3.141 0.673-1.749 0-3.327-0.56-3.576-2.394h-0.164c-0.747 1.5-2.744 2.416-4.838 2.416-2.988 0-4.867-1.935-4.867-4.742 0-3.452 2.28-4.018 5.987-4.787l3.242-0.56v-2.213c0-2.167-0.651-3.248-2.807-3.248-0.283 0-0.809 0.040-1.149 0.074l-0.045 0.017zM68.385 10.491l-1.873-0.871v-1.522l7.034-1.103h0.481v11.878c0 1.924 0.945 2.269 2.36 2.269 1.041 0 1.454-0.187 2.020-0.402v-10.254l-1.896-0.871v-1.534l7.011-1.12h0.458v14.441l1.873 0.979v1.466l-6.824 0.747h-0.492l-0.006-2.247h-0.187c-1.075 1.33-2.858 2.309-5.138 2.309-3.39 0-4.844-2.416-4.844-5.347v-8.822l0.023 0.006zM139.295 0c1.664 0 3.005 1.347 3.005 3.010 0 1.658-1.347 3.010-3.010 3.010s-3.016-1.33-3.016-2.999 1.352-2.999 3.016-2.999l0.006-0.023z"></path>
</symbol>
<symbol id="icon-logo" viewBox="0 0 64 32">
<title>logo</title>
<path d="M0 0.080v14.331h15.413v-4.661h-9.323v-9.67z"></path>
<path d="M25.061 0.080l-6.469 14.331h6.161l0.831-1.984h7.174l0.849 1.984h6.758l-6.884-14.331h-8.42zM29.126 4.068l1.915 4.411h-3.794l1.879-4.411z"></path>
<path d="M43.671 0.080h10.227c7.715 0 9.902 3.217 9.902 6.781v0.597c0 3.39-1.771 6.954-9.902 6.954h-10.227v-14.331zM49.76 10.27h3.216c4.138 0 4.499-2.003 4.499-3.024v-0.116c0-1.021-0.379-2.909-4.499-2.909h-3.216v6.049z"></path>
<path d="M31.849 23.568c0.213-0.157 0.319-0.438 0.319-0.841 0-0.388-0.113-0.652-0.34-0.791s-0.508-0.209-0.845-0.209h-2.36v2.076h2.37c0.357 0 0.642-0.078 0.855-0.236z"></path>
<path d="M31.23 25.122h-2.607v2.241h2.576c0.165 0 0.321-0.020 0.469-0.060s0.275-0.104 0.381-0.192c0.106-0.088 0.192-0.199 0.258-0.335s0.098-0.302 0.098-0.5c0-0.395-0.108-0.687-0.325-0.873s-0.5-0.28-0.85-0.28z"></path>
<path d="M9.682 23.568c0.213-0.157 0.319-0.438 0.319-0.841 0-0.388-0.113-0.652-0.34-0.791s-0.508-0.209-0.845-0.209h-2.36v2.076h2.37c0.357 0 0.642-0.078 0.855-0.236z"></path>
<path d="M9.063 25.122h-2.607v2.241h2.576c0.165 0 0.321-0.020 0.469-0.060s0.275-0.104 0.381-0.192c0.106-0.088 0.192-0.199 0.258-0.335s0.098-0.302 0.098-0.5c0-0.395-0.108-0.687-0.325-0.873s-0.5-0.28-0.85-0.28z"></path>
<path d="M0.006 31.951h63.929v-14.755h-63.929v14.755zM11.506 27.407c-0.123 0.293-0.299 0.535-0.526 0.725s-0.498 0.33-0.814 0.418c-0.316 0.088-0.666 0.132-1.051 0.132h-4.029v-8.273h3.803c0.337 0 0.659 0.044 0.969 0.132s0.582 0.225 0.819 0.412c0.237 0.187 0.426 0.427 0.567 0.719s0.211 0.648 0.211 1.066c0 0.469-0.108 0.839-0.325 1.11s-0.52 0.469-0.912 0.593c0.453 0.117 0.812 0.324 1.077 0.62s0.397 0.723 0.397 1.28c0 0.417-0.062 0.773-0.186 1.066v0zM18.565 28.682v-8.273h1.412v8.273h-1.412zM33.673 27.407c-0.124 0.293-0.299 0.535-0.526 0.725s-0.498 0.33-0.814 0.418c-0.316 0.088-0.667 0.132-1.051 0.132h-4.029v-8.273h3.803c0.337 0 0.659 0.044 0.969 0.132s0.582 0.225 0.819 0.412c0.237 0.187 0.426 0.427 0.567 0.719s0.211 0.648 0.211 1.066c0 0.469-0.108 0.839-0.325 1.11s-0.521 0.469-0.912 0.593c0.453 0.117 0.812 0.324 1.077 0.62s0.397 0.723 0.397 1.28c0 0.417-0.062 0.773-0.186 1.066v0zM46.318 28.682h-5.709v-8.273h1.412v6.911h4.297v1.362zM59.122 21.771h-4.777v2.022h3.885v1.329h-3.885v2.197h4.771v1.362h-6.183v-8.273h6.189v1.362z"></path>
</symbol>
</defs>
</svg>
