<?xml version="1.0" encoding="UTF-8"?>
<svg width="32px" height="16px" viewBox="0 0 32 16" version="1.1" xmlns="http://www.w3.org/2000/svg" xmlns:xlink="http://www.w3.org/1999/xlink">
    <!-- Generator: Sketch 46.1 (44463) - http://www.bohemiancoding.com/sketch -->
    <title>Page 1</title>
    <desc>Created with Sketch.</desc>
    <defs>
        <polygon id="path-1" points="0 15.9753754 31.9677015 15.9753754 31.9677015 0.04015422 0 0.04015422"></polygon>
    </defs>
    <g id="Page-1" stroke="none" stroke-width="1" fill="none" fill-rule="evenodd">
        <g id="Desktop" transform="translate(-307.000000, -205.000000)">
            <g id="Group-10" transform="translate(307.000000, 205.000000)">
                <g id="Page-1">
                    <polygon id="Fill-1" fill="#000000" points="0 0.0401939954 0 7.20586608 7.70628516 7.20586608 7.70628516 4.87515984 3.04463184 4.87515984 3.04463184 0.0401939954"></polygon>
                    <path d="M12.5303868,0.0401939954 L9.29609512,7.20586608 L12.3767934,7.20586608 L12.792304,6.21386744 L16.3790522,6.21386744 L16.8035172,7.20586608 L20.1824479,7.20586608 L16.7403387,0.0401939954 L12.5303868,0.0401939954 Z M14.5631677,2.03386996 L15.5206702,4.23941626 L13.6234496,4.23941626 L14.5631677,2.03386996 Z" id="Fill-2" fill="#000000"></path>
                    <path d="M21.8353493,0.0401807369 L26.9488285,0.0401807369 C30.8065726,0.0401807369 31.8997598,1.64869818 31.8997598,3.43050381 L31.8997598,3.72895195 C31.8997598,5.42404719 31.0143901,7.20585282 26.9488285,7.20585282 L21.8353493,7.20585282 L21.8353493,0.0401807369 Z M24.8799812,5.13514515 L26.4880482,5.13514515 C28.5570199,5.13514515 28.737601,4.13346783 28.737601,3.62301678 L28.737601,3.56520986 C28.737601,3.0547588 28.5480655,2.11088841 26.4880482,2.11088841 L24.8799812,2.11088841 L24.8799812,5.13514515 Z" id="Fill-3" fill="#000000"></path>
                    <path d="M15.9243908,11.7837635 C16.0307247,11.7050082 16.0840782,11.5649987 16.0840782,11.36347 C16.0840782,11.169366 16.0274912,11.0377094 15.9140684,10.9679699 C15.8006455,10.8984955 15.6598619,10.8636257 15.4915932,10.8636257 L14.3115978,10.8636257 L14.3115978,11.9017638 L15.4966923,11.9017638 C15.6752835,11.9017638 15.8179326,11.8625188 15.9243908,11.7837635" id="Fill-5" fill="#000000"></path>
                    <path d="M15.6151644,12.561081 L14.3115481,12.561081 L14.3115481,13.6816868 L15.5997429,13.6816868 C15.6821983,13.6816868 15.7603008,13.6716103 15.8341749,13.6514575 C15.9079246,13.6314372 15.9714762,13.5993517 16.0248297,13.5553336 C16.0780589,13.511448 16.1209655,13.4556299 16.1536741,13.3877465 C16.1862583,13.3199957 16.2026747,13.2367326 16.2026747,13.1378244 C16.2026747,12.9401406 16.1484507,12.79443 16.0402513,12.7010904 C15.9320518,12.6077508 15.7903977,12.561081 15.6151644,12.561081" id="Fill-7" fill="#000000"></path>
                    <path d="M4.84089124,11.7837635 C4.94734951,11.7050082 5.00057864,11.5649987 5.00057864,11.36347 C5.00057864,11.169366 4.9439916,11.0377094 4.83056877,10.9679699 C4.71714594,10.8984955 4.57636235,10.8636257 4.40809361,10.8636257 L3.22809823,10.8636257 L3.22809823,11.9017638 L4.41319266,11.9017638 C4.59178387,11.9017638 4.73443297,11.8625188 4.84089124,11.7837635" id="Fill-9" fill="#000000"></path>
                    <path d="M4.53173942,12.561081 L3.22812311,12.561081 L3.22812311,13.6816868 L4.51631789,13.6816868 C4.5987733,13.6816868 4.67687586,13.6716103 4.75074994,13.6514575 C4.82449965,13.6314372 4.88805126,13.5993517 4.94140476,13.5553336 C4.99463389,13.511448 5.03754056,13.4556299 5.07024911,13.3877465 C5.1028333,13.3199957 5.1191254,13.2367326 5.1191254,13.1378244 C5.1191254,12.9401406 5.06502569,12.79443 4.95682629,12.7010904 C4.84862688,12.6077508 4.70697271,12.561081 4.53173942,12.561081" id="Fill-11" fill="#000000"></path>
                    <mask id="mask-2" fill="white">
                        <use xlink:href="#path-1"></use>
                    </mask>
                    <g id="Clip-14"></g>
                    <path d="M0.00310917838,15.9753754 L31.9677015,15.9753754 L31.9677015,8.59796554 L0.00310917838,8.59796554 L0.00310917838,15.9753754 Z M5.75285057,13.7036693 C5.69116447,13.8501754 5.60348564,13.97096 5.49006281,14.0661559 C5.37676435,14.1614842 5.24107981,14.2309586 5.08300918,14.2749767 C4.92506292,14.3188623 4.74982963,14.3408713 4.55743367,14.3408713 L2.54281045,14.3408713 L2.54281045,10.2044942 L4.44413521,10.2044942 C4.61240394,10.2044942 4.77383248,10.2263707 4.9285452,10.2703888 C5.08300918,10.3142743 5.21968866,10.3829532 5.33808617,10.4764254 C5.45673242,10.569765 5.55100271,10.6897542 5.62151888,10.8361277 C5.69191067,10.9827663 5.72723094,11.1602972 5.72723094,11.3689855 C5.72723094,11.6033953 5.67313124,11.7884835 5.56480746,11.9238525 C5.45673242,12.059354 5.30463142,12.1582622 5.10887754,12.220577 C5.33559883,12.2790468 5.51506061,12.3824629 5.64726287,12.5308252 C5.77946514,12.6791874 5.84562845,12.8925162 5.84562845,13.1708115 C5.84562845,13.3794998 5.8147854,13.5571632 5.75285057,13.7036693 L5.75285057,13.7036693 Z M9.28251423,14.3408713 L9.98842209,14.3408713 L9.98842209,10.2044942 L9.28251423,10.2044942 L9.28251423,14.3408713 Z M16.8363253,13.7036693 C16.7745148,13.8501754 16.6869604,13.97096 16.5735375,14.0661559 C16.4602391,14.1614842 16.3245545,14.2309586 16.1666083,14.2749767 C16.0085376,14.3188623 15.8333043,14.3408713 15.6409084,14.3408713 L13.6261608,14.3408713 L13.6261608,10.2044942 L15.5276099,10.2044942 C15.6958787,10.2044942 15.8573072,10.2263707 16.0120199,10.2703888 C16.1666083,10.3142743 16.3031634,10.3829532 16.4215609,10.4764254 C16.5402071,10.569765 16.6344774,10.6897542 16.7049936,10.8361277 C16.7753854,10.9827663 16.8107057,11.1602972 16.8107057,11.3689855 C16.8107057,11.6033953 16.7564816,11.7884835 16.6484065,11.9238525 C16.5402071,12.059354 16.3881061,12.1582622 16.1924766,12.220577 C16.4189492,12.2790468 16.5985353,12.3824629 16.7307376,12.5308252 C16.8629399,12.6791874 16.9291032,12.8925162 16.9291032,13.1708115 C16.9291032,13.3794998 16.8982601,13.5571632 16.8363253,13.7036693 L16.8363253,13.7036693 Z M23.1587773,14.3408713 L20.3041785,14.3408713 L20.3041785,10.2044942 L21.0100863,10.2044942 L21.0100863,13.6597838 L23.1587773,13.6597838 L23.1587773,14.3408713 Z M29.5611975,10.8855818 L27.172851,10.8855818 L27.172851,11.8964074 L29.1153413,11.8964074 L29.1153413,12.5610545 L27.172851,12.5610545 L27.172851,13.6597838 L29.5584614,13.6597838 L29.5584614,14.3408713 L26.4668188,14.3408713 L26.4668188,10.2044942 L29.5611975,10.2044942 L29.5611975,10.8855818 Z" id="Fill-13" fill="#000000" mask="url(#mask-2)"></path>
                </g>
            </g>
        </g>
    </g>
</svg>